<svg width="49" height="46" viewBox="0 0 49 46" fill="none" xmlns="http://www.w3.org/2000/svg">
<g filter="url(#filter0_d_1001_393)">
<path d="M33.5938 4.25C37.0661 4.25 39.9744 5.53472 42.3188 8.10417C44.6633 10.6736 45.8348 13.7292 45.8334 17.2708C45.8334 17.8958 45.7987 18.5125 45.7292 19.1208C45.6598 19.7292 45.5383 20.3278 45.3647 20.9167H32.3438L28.8022 15.6042C28.6286 15.3264 28.3855 15.1007 28.073 14.9271C27.7605 14.7535 27.4306 14.6667 27.0834 14.6667C26.632 14.6667 26.2244 14.8056 25.8605 15.0833C25.4966 15.3611 25.2445 15.7083 25.1042 16.125L22.2917 24.5625L20.4688 21.8542C20.2952 21.5764 20.0522 21.3507 19.7397 21.1771C19.4272 21.0035 19.0973 20.9167 18.7501 20.9167H4.6355C4.46189 20.3264 4.34036 19.7278 4.27091 19.1208C4.20147 18.5139 4.16675 17.9146 4.16675 17.3229C4.16675 13.7465 5.32994 10.6736 7.65633 8.10417C9.98272 5.53472 12.882 4.25 16.3542 4.25C18.0209 4.25 19.5924 4.57986 21.0688 5.23958C22.5452 5.89931 23.8556 6.81945 25.0001 8C26.1112 6.81945 27.4049 5.89931 28.8813 5.23958C30.3577 4.57986 31.9286 4.25 33.5938 4.25ZM25.0001 41.75C24.3751 41.75 23.7765 41.6375 23.2042 41.4125C22.632 41.1875 22.1195 40.8486 21.6667 40.3958L7.70841 26.3854C7.50008 26.1771 7.30911 25.9688 7.1355 25.7604C6.96189 25.5521 6.78828 25.3264 6.61466 25.0833H17.6042L21.1459 30.3958C21.3195 30.6736 21.5626 30.8993 21.8751 31.0729C22.1876 31.2465 22.5174 31.3333 22.8647 31.3333C23.3161 31.3333 23.7327 31.1944 24.1147 30.9167C24.4966 30.6389 24.757 30.2917 24.8959 29.875L27.7084 21.4375L29.4792 24.1458C29.6876 24.4236 29.948 24.6493 30.2605 24.8229C30.573 24.9965 30.9029 25.0833 31.2501 25.0833H43.3334L42.8126 25.7083L42.2917 26.3333L28.2813 40.3958C27.8299 40.8472 27.3265 41.1861 26.7709 41.4125C26.2154 41.6389 25.6251 41.7514 25.0001 41.75Z" fill="#E0004E"/>
</g>
<defs>
<filter id="filter0_d_1001_393" x="-0.833252" y="0.25" width="49.6667" height="45.5" filterUnits="userSpaceOnUse" color-interpolation-filters="sRGB">
<feFlood flood-opacity="0" result="BackgroundImageFix"/>
<feColorMatrix in="SourceAlpha" type="matrix" values="0 0 0 0 0 0 0 0 0 0 0 0 0 0 0 0 0 0 127 0" result="hardAlpha"/>
<feOffset dx="-1"/>
<feGaussianBlur stdDeviation="2"/>
<feComposite in2="hardAlpha" operator="out"/>
<feColorMatrix type="matrix" values="0 0 0 0 0.878431 0 0 0 0 0 0 0 0 0 0.305882 0 0 0 0.25 0"/>
<feBlend mode="normal" in2="BackgroundImageFix" result="effect1_dropShadow_1001_393"/>
<feBlend mode="normal" in="SourceGraphic" in2="effect1_dropShadow_1001_393" result="shape"/>
</filter>
</defs>
</svg>
